<?xml version="1.0" standalone="no"?>
<!DOCTYPE svg PUBLIC "-//W3C//DTD SVG 20010904//EN"
 "http://www.w3.org/TR/2001/REC-SVG-20010904/DTD/svg10.dtd">
<svg version="1.0" xmlns="http://www.w3.org/2000/svg"
 width="670.000000pt" height="648.000000pt" viewBox="0 0 670.000000 648.000000"
 preserveAspectRatio="xMidYMid meet">

<g transform="translate(0.000000,648.000000) scale(0.100000,-0.100000)"
fill="#000000" stroke="none">
<path d="M3185 6204 c-116 -13 -301 -49 -385 -75 -162 -51 -247 -109 -428
-288 -104 -105 -287 -320 -278 -328 2 -3 45 19 95 47 136 76 365 184 455 214
84 28 125 38 362 91 84 18 230 58 325 89 280 89 492 146 652 177 32 6 57 13
54 15 -2 3 -74 16 -158 30 -130 22 -193 26 -404 29 -137 1 -268 1 -290 -1z"/>
<path d="M4138 6010 c-182 -31 -457 -96 -472 -111 -6 -5 8 -9 40 -9 64 0 307
-50 462 -95 122 -35 161 -50 457 -178 109 -47 199 -77 330 -110 155 -39 430
-128 560 -181 37 -15 33 -9 -55 75 -142 136 -261 234 -392 320 -122 81 -389
221 -540 283 -108 45 -156 46 -390 6z"/>
<path d="M2220 5920 c-19 -10 -87 -44 -150 -75 -131 -64 -328 -192 -445 -289
-105 -88 -342 -322 -360 -356 -7 -14 -23 -76 -34 -136 -25 -131 -84 -544 -79
-549 2 -2 33 44 68 103 99 164 196 286 364 459 122 126 171 186 244 296 96
146 246 344 347 462 71 83 89 105 84 105 -2 0 -20 -9 -39 -20z"/>
<path d="M3266 5312 l-69 -3 4 -452 4 -452 -493 -3 -492 -2 2 -243 3 -242 490
-5 490 -5 5 -791 5 -791 113 -118 114 -119 114 115 114 116 0 796 c0 752 1
797 18 797 9 1 235 2 502 3 l485 2 0 240 0 240 -490 1 c-269 1 -496 2 -502 3
-10 1 -13 99 -13 456 l0 454 -167 3 c-93 2 -199 2 -237 0z"/>
<path d="M5259 5204 c179 -169 348 -374 457 -555 196 -327 337 -742 370 -1094
4 -38 11 -76 17 -82 7 -9 49 -13 149 -13 l140 0 -6 88 c-20 255 -110 623 -211
868 -41 98 -150 318 -208 419 -92 161 -135 197 -364 300 -99 44 -418 165 -437
165 -5 0 37 -43 93 -96z"/>
<path d="M994 4834 c-194 -300 -332 -631 -399 -955 -27 -131 -59 -385 -50
-399 4 -6 70 -10 150 -10 l143 0 6 38 c3 20 8 60 12 87 14 112 36 227 68 350
44 165 53 219 66 385 6 74 25 236 41 359 16 123 28 226 25 228 -3 3 -31 -35
-62 -83z"/>
<path d="M530 3142 c0 -95 4 -144 13 -155 11 -16 93 -17 1212 -15 l1200 3 3
153 3 152 -1216 0 -1215 0 0 -138z"/>
<path d="M3917 3273 c-13 -12 -8 -278 5 -291 9 -9 296 -12 1229 -12 670 0
1224 3 1233 6 14 5 16 28 16 155 l0 149 -1238 0 c-681 0 -1242 -3 -1245 -7z"/>
<path d="M563 2758 c8 -88 49 -298 83 -428 101 -381 296 -765 554 -1090 102
-130 322 -349 455 -455 392 -313 853 -517 1360 -602 91 -15 166 -18 435 -18
294 0 338 2 464 23 639 108 1140 364 1602 818 265 260 451 526 605 859 68 146
145 356 179 489 30 118 76 359 82 431 l3 40 -1235 0 -1235 0 0 -145 0 -145
148 -3 c106 -2 147 -6 147 -14 0 -15 -750 -768 -765 -768 -15 0 -765 753 -765
768 0 9 35 12 140 12 l140 0 0 150 0 150 -1201 0 -1202 0 6 -72z m1577 -241
c0 -7 -57 -67 -127 -133 -70 -65 -263 -253 -430 -416 -167 -164 -311 -298
-318 -298 -35 0 -197 309 -265 505 -52 151 -102 334 -95 346 4 5 253 9 621 9
502 0 614 -2 614 -13z m3890 -5 c0 -34 -70 -262 -116 -379 -82 -207 -242 -503
-273 -503 -8 0 -173 157 -366 348 -192 191 -394 389 -447 440 -54 50 -98 96
-98 102 0 7 208 10 650 10 618 0 650 -1 650 -18z m-3208 -568 c222 -223 404
-410 406 -415 5 -11 -831 -849 -847 -849 -19 0 -202 103 -316 177 -134 88
-229 162 -360 280 -152 137 -249 247 -238 268 13 22 936 945 945 945 4 0 189
-183 410 -406z m2147 -80 l483 -486 -53 -56 c-224 -233 -404 -379 -650 -527
-223 -135 -245 -143 -271 -106 -7 10 -191 200 -408 421 -217 221 -396 408
-398 415 -3 12 794 825 808 825 4 0 224 -219 489 -486z m-1158 -929 c200 -201
365 -370 367 -375 12 -34 -500 -110 -744 -110 -215 0 -720 82 -712 116 3 11
713 734 722 734 2 0 167 -164 367 -365z"/>
</g>
</svg>
